<svg
  xmlns="http://www.w3.org/2000/svg" viewBox="0 0 40 40">
  <defs>
    <style>.cls-1{fill:#fff;fill-rule:evenodd;}</style>
  </defs>
  <path class="cls-1" d="M20,0a4,4,0,1,0,4,4A4,4,0,0,0,20,0ZM8.74,4.69a4,4,0,0,0-2.88,6.82h0a4,4,0,0,0,5.65,0h0a4,4,0,0,0,0-5.66h0A4,4,0,0,0,8.74,4.69Zm22.63,0a4,4,0,0,0-2.89,6.82h0a4,4,0,0,0,5.66,0h0a4,4,0,0,0,0-5.66h0A4,4,0,0,0,31.37,4.69ZM4,16a4,4,0,1,0,4,4A4,4,0,0,0,4,16Zm32,0a4,4,0,1,0,4,4A4,4,0,0,0,36,16ZM8.74,27.31a4,4,0,0,0-2.88,6.83h0a4,4,0,0,0,5.65,0h0a4,4,0,0,0,0-5.65h0A4.06,4.06,0,0,0,8.74,27.31Zm22.63,0a4.06,4.06,0,0,0-2.89,1.17,4,4,0,0,0,0,5.66h0a4,4,0,0,0,5.66,0h0a4,4,0,0,0,0-5.65h0A4,4,0,0,0,31.37,27.31ZM20,32a4,4,0,1,0,4,4A4,4,0,0,0,20,32Z"/>
</svg>